#Comment line ignore any data following # character 
#Hierarchical Translation and Rotation (.htr) file 
[Header]	
#Header keywords are followed by a single value 
FileType HTR		#Single word string
DataType HTRS		#Translation followed by rotation and scale data
FileVersion 1		#integer
NumSegments 64		#integer
NumFrames 3		#integer
DataFrameRate 30		#integer, data frame rate in this file
EulerRotationOrder ZYX
CalibrationUnits mm
RotationUnits Degrees
GlobalAxisofGravity Y
BoneLengthAxis Y
ScaleFactor 1.00
[SegmentNames&Hierarchy]
#CHILD	PARENT
Pinger_Root GLOBAL
Pelvis Pinger_Root
L_Hip Pelvis
R_Hip Pelvis
Rear_Leg01 Pelvis
Spine1 Pelvis
L_Leg01 L_Hip
L_Leg02 L_Leg01
L_Leg03 L_Leg02
L_Foot L_Leg03
L_Toe1_01 L_Foot
L_Toe2_01 L_Foot
L_Toe3_01 L_Foot
planeAlignerLeft L_Foot
L_Toe1_02 L_Toe1_01
L_Toe1_03 L_Toe1_02
L_Toe2_02 L_Toe2_01
L_Toe2_03 L_Toe2_02
L_Toe3_02 L_Toe3_01
L_Toe3_03 L_Toe3_02
planeLockWeightLeft planeAlignerLeft
R_Leg01 R_Hip
R_Leg02 R_Leg01
R_Leg03 R_Leg02
R_Foot R_Leg03
planeAlignerRight R_Foot
R_Toe1_01 R_Foot
R_Toe2_01 R_Foot
R_Toe3_01 R_Foot
planeLockWeightRight planeAlignerRight
R_Toe1_02 R_Toe1_01
R_Toe1_03 R_Toe1_02
R_Toe2_02 R_Toe2_01
R_Toe2_03 R_Toe2_02
R_Toe3_02 R_Toe3_01
R_Toe3_03 R_Toe3_02
Rear_Leg02 Rear_Leg01
Rear_Leg03 Rear_Leg02
Rear_Leg04 Rear_Leg03
Rear_Foot Rear_Leg04
planeAlignerCenter Rear_Foot
Rear_Toe1_01 Rear_Foot
Rear_Toe2_01 Rear_Foot
Rear_Toe3_01 Rear_Foot
planeLockWeightCenter planeAlignerCenter
Rear_Toe1_02 Rear_Toe1_01
Rear_Toe1_03 Rear_Toe1_02
Rear_Toe2_02 Rear_Toe2_01
Rear_Toe2_03 Rear_Toe2_02
Rear_Toe3_02 Rear_Toe3_01
Rear_Toe3_03 Rear_Toe3_02
Back_Bone Spine1
Head Spine1
Motor_Bone Back_Bone
Ping_Mechanism Back_Bone
BN_LookIK Head
bottomMouth Head
L_Mouth01 Head
L_mouthFront Head
mouthGun Head
R_Mouth01 Head
R_mouthFront Head
TopMouth Head
weapon_bone Head
[BasePosition]
#SegmentName Tx, Ty, Tz, Rx, Ry, Rz, BoneLength
Pinger_Root 0.000000 0.000000 0.000000 -90.000000 0.000000 0.000000 10.000000 
Pelvis 0.000000 0.000000 0.000000 0.000000 0.000000 0.000000 10.000000 
L_Hip 0.000000 0.000000 0.000000 0.000000 0.000000 0.000000 10.000000 
R_Hip 0.000000 0.000000 0.000000 0.000000 0.000000 0.000000 10.000000 
Rear_Leg01 0.000000 0.000000 0.000000 0.000000 0.000000 0.000000 10.000000 
Spine1 0.000000 0.000000 0.000000 0.000000 0.000000 0.000000 10.000000 
L_Leg01 0.000000 0.000000 0.000000 0.000000 0.000000 0.000000 10.000000 
L_Leg02 0.000000 0.000000 0.000000 0.000000 0.000000 0.000000 10.000000 
L_Leg03 0.000000 0.000000 0.000000 0.000000 0.000000 0.000000 10.000000 
L_Foot 0.000000 0.000000 0.000000 0.000000 0.000000 0.000000 10.000000 
L_Toe1_01 0.000000 0.000000 0.000000 0.000000 0.000000 0.000000 10.000000 
L_Toe2_01 0.000000 0.000000 0.000000 0.000000 0.000000 0.000000 10.000000 
L_Toe3_01 0.000000 0.000000 0.000000 0.000000 0.000000 0.000000 10.000000 
planeAlignerLeft 0.000000 0.000000 0.000000 0.000000 0.000000 0.000000 10.000000 
L_Toe1_02 0.000000 0.000000 0.000000 0.000000 0.000000 0.000000 10.000000 
L_Toe1_03 0.000000 0.000000 0.000000 0.000000 0.000000 0.000000 10.000000 
L_Toe2_02 0.000000 0.000000 0.000000 0.000000 0.000000 0.000000 10.000000 
L_Toe2_03 0.000000 0.000000 0.000000 0.000000 0.000000 0.000000 10.000000 
L_Toe3_02 0.000000 0.000000 0.000000 0.000000 0.000000 0.000000 10.000000 
L_Toe3_03 0.000000 0.000000 0.000000 0.000000 0.000000 0.000000 10.000000 
planeLockWeightLeft 0.000000 0.000000 0.000000 0.000000 0.000000 0.000000 10.000000 
R_Leg01 0.000000 0.000000 0.000000 0.000000 0.000000 0.000000 10.000000 
R_Leg02 0.000000 0.000000 0.000000 0.000000 0.000000 0.000000 10.000000 
R_Leg03 0.000000 0.000000 0.000000 0.000000 0.000000 0.000000 10.000000 
R_Foot 0.000000 0.000000 0.000000 0.000000 0.000000 0.000000 10.000000 
planeAlignerRight 0.000000 0.000000 0.000000 0.000000 0.000000 0.000000 10.000000 
R_Toe1_01 0.000000 0.000000 0.000000 0.000000 0.000000 0.000000 10.000000 
R_Toe2_01 0.000000 0.000000 0.000000 0.000000 0.000000 0.000000 10.000000 
R_Toe3_01 0.000000 0.000000 0.000000 0.000000 0.000000 0.000000 10.000000 
planeLockWeightRight 0.000000 0.000000 0.000000 0.000000 0.000000 0.000000 10.000000 
R_Toe1_02 0.000000 0.000000 0.000000 0.000000 0.000000 0.000000 10.000000 
R_Toe1_03 0.000000 0.000000 0.000000 0.000000 0.000000 0.000000 10.000000 
R_Toe2_02 0.000000 0.000000 0.000000 0.000000 0.000000 0.000000 10.000000 
R_Toe2_03 0.000000 0.000000 0.000000 0.000000 0.000000 0.000000 10.000000 
R_Toe3_02 0.000000 0.000000 0.000000 0.000000 0.000000 0.000000 10.000000 
R_Toe3_03 0.000000 0.000000 0.000000 0.000000 0.000000 0.000000 10.000000 
Rear_Leg02 0.000000 0.000000 0.000000 0.000000 0.000000 0.000000 10.000000 
Rear_Leg03 0.000000 0.000000 0.000000 0.000000 0.000000 0.000000 10.000000 
Rear_Leg04 0.000000 0.000000 0.000000 0.000000 0.000000 0.000000 10.000000 
Rear_Foot 0.000000 0.000000 0.000000 0.000000 0.000000 0.000000 10.000000 
planeAlignerCenter 0.000000 0.000000 0.000000 0.000000 0.000000 0.000000 10.000000 
Rear_Toe1_01 0.000000 0.000000 0.000000 0.000000 0.000000 0.000000 10.000000 
Rear_Toe2_01 0.000000 0.000000 0.000000 0.000000 0.000000 0.000000 10.000000 
Rear_Toe3_01 0.000000 0.000000 0.000000 0.000000 0.000000 0.000000 10.000000 
planeLockWeightCenter 0.000000 0.000000 0.000000 0.000000 0.000000 0.000000 10.000000 
Rear_Toe1_02 0.000000 0.000000 0.000000 0.000000 0.000000 0.000000 10.000000 
Rear_Toe1_03 0.000000 0.000000 0.000000 0.000000 0.000000 0.000000 10.000000 
Rear_Toe2_02 0.000000 0.000000 0.000000 0.000000 0.000000 0.000000 10.000000 
Rear_Toe2_03 0.000000 0.000000 0.000000 0.000000 0.000000 0.000000 10.000000 
Rear_Toe3_02 0.000000 0.000000 0.000000 0.000000 0.000000 0.000000 10.000000 
Rear_Toe3_03 0.000000 0.000000 0.000000 0.000000 0.000000 0.000000 10.000000 
Back_Bone 0.000000 0.000000 0.000000 0.000000 0.000000 0.000000 10.000000 
Head 0.000000 0.000000 0.000000 0.000000 0.000000 0.000000 10.000000 
Motor_Bone 0.000000 0.000000 0.000000 0.000000 0.000000 0.000000 10.000000 
Ping_Mechanism 0.000000 0.000000 0.000000 0.000000 0.000000 0.000000 10.000000 
BN_LookIK 0.000000 0.000000 0.000000 0.000000 0.000000 0.000000 10.000000 
bottomMouth 0.000000 0.000000 0.000000 0.000000 0.000000 0.000000 10.000000 
L_Mouth01 0.000000 0.000000 0.000000 0.000000 0.000000 0.000000 10.000000 
L_mouthFront 0.000000 0.000000 0.000000 0.000000 0.000000 0.000000 10.000000 
mouthGun 0.000000 0.000000 0.000000 0.000000 0.000000 0.000000 10.000000 
R_Mouth01 0.000000 0.000000 0.000000 0.000000 0.000000 0.000000 10.000000 
R_mouthFront 0.000000 0.000000 0.000000 0.000000 0.000000 0.000000 10.000000 
TopMouth 0.000000 0.000000 0.000000 0.000000 0.000000 0.000000 10.000000 
weapon_bone 0.000000 0.000000 0.000000 0.000000 0.000000 0.000000 10.000000 
#Beginning of Data. Separated by tabs
#Fr	Tx	Ty	Tz	Rx	Ry	Rz	SF
[Pinger_Root]
32 0.000000 0.000000 0.000000 -0.000075 -0.000000 -0.000020 0.000000
33 0.000000 0.000000 0.000000 -0.000075 -0.000000 -0.000020 0.000000
34 0.000000 0.000000 0.000000 -0.000075 -0.000000 -0.000020 0.000000
[Pelvis]
32 926.440247 487.184570 4316.377930 -50.274105 -80.488289 43.067043 4441.481934
33 926.753540 487.133698 4292.648438 -52.368954 -80.163216 45.192947 4418.483887
34 926.852478 489.510773 4268.134277 -54.326591 -79.825752 47.181652 4394.957031
[L_Hip]
32 5.766392 125.831482 872.656799 160.158691 -45.484894 122.312202 881.701050
33 5.766392 125.831482 872.656799 160.158691 -45.484894 122.312202 881.701050
34 5.766392 125.831482 872.656799 160.158691 -45.484905 122.312202 881.701050
[R_Hip]
32 5.765438 125.836372 -872.654907 38.087826 49.812679 125.703735 881.699829
33 5.765438 125.836372 -872.654907 38.087830 49.812672 125.703735 881.699829
34 5.765438 125.836372 -872.654907 38.087841 49.812687 125.703735 881.699829
[Rear_Leg01]
32 -192.298416 -925.602966 -0.001907 170.364304 -4.176265 -165.754547 945.367432
33 -192.298416 -925.602966 -0.001907 170.342957 -4.278518 -166.204086 945.367432
34 -192.298416 -925.602966 -0.001907 170.298264 -4.386118 -166.487335 945.367432
[Spine1]
32 290.604584 5.007505 0.000477 -10.996346 14.067375 0.870266 290.647736
33 290.604584 5.007505 0.000477 -10.667154 14.255819 1.026718 290.647736
34 290.604584 5.007505 0.000477 -10.214856 14.641665 1.244140 290.647736
[L_Leg01]
32 761.932007 -0.002384 -0.069261 24.765690 -9.601484 -25.179270 761.932068
33 761.932007 -0.002384 -0.069261 24.338428 -10.216443 -23.316505 761.932068
34 761.932007 -0.002384 -0.069261 23.890200 -10.817365 -21.445450 761.932068
[L_Leg02]
32 1441.140503 -0.000954 -0.000715 -1.139192 0.154584 -86.303223 1441.140503
33 1441.140503 -0.000954 -0.000715 -1.012735 0.126448 -88.622009 1441.140503
34 1441.140503 -0.000954 -0.000715 -0.868361 0.100782 -91.159653 1441.140503
[L_Leg03]
32 1686.963989 -0.000715 -0.000954 -0.004566 0.000859 111.301575 1686.963989
33 1686.963989 -0.000715 -0.000954 -0.006850 0.001327 111.924660 1686.963989
34 1686.963989 -0.000715 -0.000954 -0.009130 0.001820 112.547821 1686.963989
[L_Foot]
32 3041.570068 -30.715107 11.297464 -7.889007 12.686602 34.848579 3041.746094
33 3041.570068 -30.715107 11.297464 -7.986382 12.688842 35.070351 3041.746094
34 3041.570068 -30.715107 11.297464 -8.074462 12.697960 35.553246 3041.746094
[L_Toe1_01]
32 -188.216690 -224.732346 -21.137953 93.651649 -3.913716 -171.316177 293.899567
33 -188.216690 -224.732346 -21.137953 93.653023 -3.905950 -171.334015 293.899567
34 -188.216690 -224.732346 -21.137953 93.654388 -3.898184 -171.351852 293.899567
[L_Toe2_01]
32 200.746536 -219.926590 148.838394 -90.856667 -22.594759 -53.300621 332.896027
33 200.746536 -219.926590 148.838394 -90.867134 -22.590723 -53.278000 332.896027
34 200.746536 -219.926590 148.838394 -90.877625 -22.586681 -53.255390 332.896027
[L_Toe3_01]
32 188.832520 -219.859131 -191.078659 -101.536049 16.185038 -70.922966 347.140900
33 188.832520 -219.859131 -191.078659 -101.537682 16.197165 -70.906792 347.140900
34 188.832520 -219.859131 -191.078659 -101.539330 16.209299 -70.890625 347.140900
[planeAlignerLeft]
32 0.812531 -811.448792 -0.314951 0.000000 -90.000000 -90.001900 811.449280
33 0.812531 -811.448792 -0.314951 0.000000 -90.000000 -90.001900 811.449280
34 0.812531 -811.448792 -0.314951 0.000000 -90.000000 -90.001900 811.449280
[L_Toe1_02]
32 413.761139 0.000477 0.000000 0.000203 -25.410625 -0.000182 413.761139
33 413.761139 0.000477 0.000000 0.000203 -25.410625 -0.000182 413.761139
34 413.761139 0.000477 0.000000 0.000203 -25.410625 -0.000182 413.761139
[L_Toe1_03]
32 464.317322 0.000358 -0.000089 0.004012 55.984863 0.004012 464.317322
33 464.317322 0.000358 -0.000089 0.004014 56.000816 0.004014 464.317322
34 464.317322 0.000358 -0.000089 0.004016 56.016758 0.004016 464.317322
[L_Toe2_02]
32 342.235809 -0.000477 0.000238 0.001187 -72.533691 0.001187 342.235809
33 342.235809 -0.000477 0.000238 0.001187 -72.544113 0.001187 342.235809
34 342.235809 -0.000477 0.000238 0.001187 -72.554596 0.001187 342.235809
[L_Toe2_03]
32 420.210846 -0.000715 0.000000 0.031144 85.680626 0.031144 420.210846
33 420.210846 -0.000715 0.000000 0.031287 85.700394 0.031287 420.210846
34 420.210846 -0.000715 0.000000 0.031431 85.720116 0.031431 420.210846
[L_Toe3_02]
32 329.270111 0.000954 0.000000 0.001180 -78.197586 0.001180 329.270111
33 329.270111 0.000954 0.000000 0.001180 -78.210663 0.001180 329.270111
34 329.270111 0.000954 0.000000 0.001180 -78.223709 0.001180 329.270111
[L_Toe3_03]
32 439.137451 -0.001907 0.000954 -179.981094 86.811501 -179.977585 439.137451
33 439.137451 -0.001907 0.000954 -179.981201 86.795822 -179.977707 439.137451
34 439.137451 -0.001907 0.000954 -179.981293 86.780281 -179.977798 439.137451
[planeLockWeightLeft]
32 -0.000954 0.000238 -0.000305 -0.011826 -0.004376 0.005620 0.001029
33 -0.000954 0.000238 -0.000305 -0.011826 -0.004376 0.005620 0.001029
34 -0.000954 0.000238 -0.000305 -0.011826 -0.004376 0.005620 0.001029
[R_Leg01]
32 761.455627 -0.001907 -0.000358 125.329697 -26.960554 24.729948 761.455688
33 761.455627 -0.001907 -0.000358 125.951439 -27.971094 23.720495 761.455688
34 761.455627 -0.001907 -0.000358 126.611877 -29.031649 22.599665 761.455688
[R_Leg02]
32 1441.140625 0.000000 -0.000238 -2.196605 -0.660805 -143.382553 1441.140625
33 1441.140625 0.000000 -0.000238 -2.255042 -0.699528 -145.174789 1441.140625
34 1441.140625 0.000000 -0.000238 -2.312239 -0.740060 -146.966980 1441.140625
[R_Leg03]
32 1686.963989 0.000954 0.001431 0.098536 -0.056961 137.121017 1686.963989
33 1686.963989 0.000954 0.001431 0.099001 -0.058728 137.390335 1686.963989
34 1686.963989 0.000954 0.001431 0.101149 -0.058102 137.697906 1686.963989
[R_Foot]
32 3041.560059 -30.531288 -11.204481 -11.212924 -24.069181 60.905659 3041.734131
33 3041.560059 -30.531288 -11.204481 -11.130905 -24.022493 61.353153 3041.734131
34 3041.560059 -30.531288 -11.204481 -11.048513 -23.976383 61.800571 3041.734131
[planeAlignerRight]
32 -0.635147 -812.270569 -0.364304 0.000000 -89.960434 -90.005180 812.270874
33 -0.635147 -812.270569 -0.364304 0.000000 -89.960434 -90.005180 812.270874
34 -0.635147 -812.270569 -0.364304 0.000000 -89.960434 -90.005180 812.270874
[R_Toe1_01]
32 -188.383347 -224.864899 21.052242 77.202370 8.954979 -170.383209 294.101532
33 -188.383347 -224.864899 21.052242 77.202370 8.954979 -170.383209 294.101532
34 -188.383347 -224.864899 21.052242 77.202370 8.954979 -170.383209 294.101532
[R_Toe2_01]
32 200.637817 -220.002121 -148.787384 -96.373779 44.386406 -60.485493 332.857574
33 200.637817 -220.002121 -148.787384 -96.373779 44.386406 -60.485493 332.857574
34 200.637817 -220.002121 -148.787384 -96.373779 44.386406 -60.485493 332.857574
[R_Toe3_01]
32 188.606735 -220.092957 191.126343 -76.579155 -3.084908 -66.590927 347.192566
33 188.606735 -220.092957 191.126343 -76.579155 -3.084909 -66.590935 347.192566
34 188.606735 -220.092957 191.126343 -76.579155 -3.084909 -66.590935 347.192566
[planeLockWeightRight]
32 -0.000477 0.000000 0.000000 -0.011823 -0.004379 -0.000027 0.000477
33 -0.000477 0.000000 0.000000 -0.011823 -0.004379 -0.000027 0.000477
34 -0.000477 0.000000 0.000000 -0.011823 -0.004379 -0.000027 0.000477
[R_Toe1_02]
32 413.762085 0.000477 -0.000119 0.001389 -25.343361 0.001389 413.762085
33 413.762085 0.000477 -0.000119 0.001389 -25.343361 0.001389 413.762085
34 413.762085 0.000477 -0.000119 0.001389 -25.343361 0.001389 413.762085
[R_Toe1_03]
32 464.317810 0.000000 0.001088 0.002946 43.045193 0.002946 464.317810
33 464.317810 0.000000 0.001088 0.002946 43.045193 0.002946 464.317810
34 464.317810 0.000000 0.001088 0.002946 43.045193 0.002946 464.317810
[R_Toe2_02]
32 342.234741 -0.000954 0.000238 0.001192 -69.640297 0.001192 342.234741
33 342.234741 -0.000954 0.000238 0.001192 -69.632072 0.001192 342.234741
34 342.234741 -0.000954 0.000238 0.001192 -69.623825 0.001192 342.234741
[R_Toe2_03]
32 420.210846 0.000715 -0.000268 0.012099 78.867447 0.012099 420.210846
33 420.210846 0.000715 -0.000268 0.012095 78.863358 0.012095 420.210846
34 420.210846 0.000715 -0.000268 0.012091 78.859276 0.012091 420.210846
[R_Toe3_02]
32 329.270355 -0.000477 -0.000954 0.001176 -82.987030 0.001176 329.270355
33 329.270355 -0.000477 -0.000954 0.001176 -82.983231 0.001176 329.270355
34 329.270355 -0.000477 -0.000954 0.001176 -82.979485 0.001176 329.270355
[R_Toe3_03]
32 439.137939 0.000238 0.001431 -179.999039 65.852890 -179.995468 439.137939
33 439.137939 0.000238 0.001431 -179.999039 65.852890 -179.995468 439.137939
34 439.137939 0.000238 0.001431 -179.999039 65.852890 -179.995468 439.137939
[Rear_Leg02]
32 1162.777710 -0.029802 0.005960 1.258372 -2.701299 -136.855743 1162.777710
33 1162.777710 -0.029802 0.005960 1.286026 -2.688760 -137.485367 1162.777710
34 1162.777710 -0.029802 0.005960 1.313538 -2.675917 -138.114990 1162.777710
[Rear_Leg03]
32 607.192505 -0.013351 -0.073195 0.010457 -0.005178 69.038956 607.192505
33 607.192505 -0.013351 -0.073195 0.010450 -0.005192 69.199677 607.192505
34 607.192505 -0.013351 -0.073195 0.010442 -0.005207 69.360413 607.192505
[Rear_Leg04]
32 995.874512 -0.020504 -0.011921 -0.040342 -0.018481 68.136284 995.874573
33 995.874512 -0.020504 -0.011921 -0.040415 -0.018322 68.588272 995.874573
34 995.874512 -0.020504 -0.011921 -0.040486 -0.018162 69.040245 995.874573
[Rear_Foot]
32 3096.176270 -0.067472 -0.041425 -170.026825 74.621933 16.638252 3096.176270
33 3096.176270 -0.067472 -0.041425 -170.079269 74.566498 16.709984 3096.176270
34 3096.176270 -0.067472 -0.041425 -170.131790 74.511139 16.781668 3096.176270
[planeAlignerCenter]
32 0.350077 0.966311 -838.790894 0.000009 0.000003 -179.999985 838.791565
33 0.350077 0.966311 -838.790894 0.000009 0.000003 -179.999985 838.791565
34 0.350077 0.966311 -838.790894 0.000009 0.000003 -179.999985 838.791565
[Rear_Toe1_01]
32 0.653352 83.966492 -371.173737 0.288088 41.914127 90.413170 380.553192
33 0.653352 83.966492 -371.173737 0.288093 41.914120 90.413170 380.553192
34 0.653352 83.966492 -371.173737 0.288091 41.914127 90.413170 380.553192
[Rear_Toe2_01]
32 178.200760 -294.826019 -362.060547 -7.196267 34.406261 -66.271294 499.765686
33 178.200760 -294.826019 -362.060547 -7.196269 34.406261 -66.271301 499.765686
34 178.200760 -294.826019 -362.060547 -7.196267 34.406261 -66.271294 499.765686
[Rear_Toe3_01]
32 -153.359680 -308.780914 -362.060852 3.289420 33.518005 -112.540970 499.952881
33 -153.359680 -308.780914 -362.060852 3.289418 33.518005 -112.540970 499.952881
34 -153.359680 -308.780914 -362.060852 3.289418 33.518005 -112.540970 499.952881
[planeLockWeightCenter]
32 -0.000062 0.000238 0.000000 -0.011814 -0.004373 -0.000015 0.000246
33 -0.000062 0.000238 0.000000 -0.011814 -0.004373 -0.000015 0.000246
34 -0.000062 0.000238 0.000000 -0.011814 -0.004373 -0.000015 0.000246
[Rear_Toe1_02]
32 379.707825 0.194073 0.000477 -0.000242 -31.676744 0.006934 379.707855
33 379.707825 0.194073 0.000477 -0.000242 -31.676741 0.006934 379.707855
34 379.707825 0.194073 0.000477 -0.000242 -31.676744 0.006934 379.707855
[Rear_Toe1_03]
32 500.129700 0.165701 0.000119 -0.000103 51.902466 0.007295 500.129761
33 500.129700 0.165701 0.000119 -0.000103 51.902466 0.007295 500.129761
34 500.129700 0.165701 0.000119 -0.000103 51.902481 0.007295 500.129761
[Rear_Toe2_02]
32 340.494507 0.000238 -0.000954 0.001192 -69.854523 0.001192 340.494507
33 340.494507 0.000238 -0.000954 0.001192 -69.854523 0.001192 340.494507
34 340.494507 0.000238 -0.000954 0.001192 -69.854523 0.001192 340.494507
[Rear_Toe2_03]
32 433.103577 0.000000 0.000238 0.006696 69.810303 0.006696 433.103546
33 433.103577 0.000000 0.000238 0.006696 69.810326 0.006696 433.103546
34 433.103577 0.000000 0.000238 0.006696 69.810326 0.006696 433.103546
[Rear_Toe3_02]
32 340.494141 -0.000358 -0.000477 0.008288 -67.274704 -0.009460 340.494171
33 340.494141 -0.000358 -0.000477 0.008288 -67.274704 -0.009460 340.494171
34 340.494141 -0.000358 -0.000477 0.008288 -67.274704 -0.009460 340.494171
[Rear_Toe3_03]
32 433.103577 0.001431 -0.000238 -0.000972 65.958961 -0.004547 433.103546
33 433.103577 0.001431 -0.000238 -0.000972 65.958977 -0.004547 433.103546
34 433.103577 0.001431 -0.000238 -0.000972 65.958984 -0.004547 433.103546
[Back_Bone]
32 1312.175781 -701.934692 0.000954 0.000023 -0.000007 -85.606667 1488.125488
33 1312.175781 -701.934692 0.000954 0.000023 -0.000007 -85.606667 1488.125488
34 1312.175781 -701.934692 0.000954 0.000023 -0.000007 -85.606667 1488.125488
[Head]
32 1406.159424 809.709290 0.001431 0.368483 -0.683415 6.600813 1622.625488
33 1406.159424 809.709290 0.001431 0.275890 -1.204138 6.902670 1622.625488
34 1406.159424 809.709290 0.001431 0.180533 -1.724366 7.205437 1622.625488
[Motor_Bone]
32 1158.364380 -417.834747 0.000477 -0.000105 0.000046 -105.985291 1231.419434
33 1158.364380 -417.834747 0.000477 -0.000105 0.000046 -105.985291 1231.419434
34 1158.364380 -417.834747 0.000477 -0.000105 0.000046 -105.985291 1231.419434
[Ping_Mechanism]
32 1215.237793 -433.297150 0.000954 0.000103 -0.000053 82.120995 1290.174072
33 1215.237793 -433.297150 0.000954 0.000103 -0.000053 82.120995 1290.174072
34 1215.237793 -433.297150 0.000954 0.000103 -0.000053 82.120995 1290.174072
[BN_LookIK]
32 193.241119 1380.371704 -0.002861 0.000000 89.965736 -31.038179 1393.832153
33 193.241119 1380.371704 -0.002861 0.000000 89.965736 -31.038179 1393.832153
34 193.241119 1380.371704 -0.002861 0.000000 89.965736 -31.038179 1393.832153
[bottomMouth]
32 -435.092926 615.759399 -0.000954 -0.000022 0.000016 73.527184 753.966492
33 -435.092926 615.759399 -0.000954 -0.000022 0.000016 73.527184 753.966492
34 -435.092926 615.759399 -0.000954 -0.000022 0.000016 73.527184 753.966492
[L_Mouth01]
32 554.440979 7.658243 838.222046 150.204178 23.759130 109.605339 1005.027161
33 554.440979 7.658243 838.222046 150.204178 23.759130 109.605339 1005.027161
34 554.440979 7.658243 838.222046 150.204178 23.759130 109.605339 1005.027161
[L_mouthFront]
32 551.629089 934.514771 339.150421 0.000081 2.804060 79.119301 1136.941284
33 551.629089 934.514771 339.150421 0.000081 2.804060 79.119301 1136.941284
34 551.629089 934.514771 339.150421 0.000081 2.804060 79.119301 1136.941284
[mouthGun]
32 55.332661 1627.420898 0.000000 0.000023 0.000009 -11.038128 1628.361328
33 55.332661 1627.420898 0.000000 0.000023 0.000009 -11.038128 1628.361328
34 55.332661 1627.420898 0.000000 0.000023 0.000009 -11.038128 1628.361328
[R_Mouth01]
32 554.442383 7.659197 -838.223938 29.795891 -23.759109 109.605331 1005.029541
33 554.442383 7.659197 -838.223938 29.795891 -23.759109 109.605331 1005.029541
34 554.442383 7.659197 -838.223938 29.795891 -23.759109 109.605331 1005.029541
[R_mouthFront]
32 551.629089 934.514282 -339.151367 0.000029 -2.803930 79.119133 1136.941162
33 551.629089 934.514282 -339.151367 0.000029 -2.803930 79.119133 1136.941162
34 551.629089 934.514282 -339.151367 0.000029 -2.803930 79.119133 1136.941162
[TopMouth]
32 461.269867 -56.106091 -0.008583 -0.000059 -0.000268 92.025169 464.669525
33 461.269867 -56.106091 -0.008583 -0.000059 -0.000268 92.025169 464.669525
34 461.269867 -56.106091 -0.008583 -0.000059 -0.000268 92.025169 464.669525
[weapon_bone]
32 -987.239868 1448.372803 0.001431 0.000000 89.965736 -31.038221 1752.833740
33 -987.239868 1448.372803 0.001431 0.000000 89.965736 -31.038221 1752.833740
34 -987.239868 1448.372803 0.001431 0.000000 89.965736 -31.038221 1752.833740
